<?xml version="1.0" encoding="UTF-8" standalone="no"?>
<!DOCTYPE svg PUBLIC "-//W3C//DTD SVG 1.1//EN"
 "http://www.w3.org/Graphics/SVG/1.1/DTD/svg11.dtd">
<!-- Generated by graphviz version 2.43.0 (0)
 -->
<!-- Title: BRAKER4 Pages: 1 -->
<svg width="1684pt" height="1485pt"
 viewBox="0.00 0.00 1683.60 1484.60" xmlns="http://www.w3.org/2000/svg" xmlns:xlink="http://www.w3.org/1999/xlink">
<g id="graph0" class="graph" transform="scale(1 1) rotate(0) translate(28.8 1455.8)">
<title>BRAKER4</title>
<polygon fill="white" stroke="transparent" points="-28.8,28.8 -28.8,-1455.8 1654.8,-1455.8 1654.8,28.8 -28.8,28.8"/>
<g id="clust1" class="cluster">
<title>cluster_inputs</title>
<path fill="#fafafa" stroke="#888888" d="M878,-1275C878,-1275 1606,-1275 1606,-1275 1612,-1275 1618,-1281 1618,-1287 1618,-1287 1618,-1407 1618,-1407 1618,-1413 1612,-1419 1606,-1419 1606,-1419 878,-1419 878,-1419 872,-1419 866,-1413 866,-1407 866,-1407 866,-1287 866,-1287 866,-1281 872,-1275 878,-1275"/>
<text text-anchor="middle" x="1242" y="-1400.6" font-family="Helvetica,sans-Serif" font-weight="bold" font-size="18.00">INPUTS</text>
</g>
<g id="clust3" class="cluster">
<title>cluster_pre</title>
<path fill="#fafafa" stroke="#888888" d="M520,-1112C520,-1112 924,-1112 924,-1112 930,-1112 936,-1118 936,-1124 936,-1124 936,-1232 936,-1232 936,-1238 930,-1244 924,-1244 924,-1244 520,-1244 520,-1244 514,-1244 508,-1238 508,-1232 508,-1232 508,-1124 508,-1124 508,-1118 514,-1112 520,-1112"/>
<text text-anchor="middle" x="722" y="-1225.6" font-family="Helvetica,sans-Serif" font-weight="bold" font-size="18.00">PREPROCESSING</text>
</g>
<g id="clust5" class="cluster">
<title>cluster_outputs</title>
<path fill="#fafafa" stroke="#888888" d="M20,-201C20,-201 1083,-201 1083,-201 1089,-201 1095,-207 1095,-213 1095,-213 1095,-321 1095,-321 1095,-327 1089,-333 1083,-333 1083,-333 20,-333 20,-333 14,-333 8,-327 8,-321 8,-321 8,-213 8,-213 8,-207 14,-201 20,-201"/>
<text text-anchor="middle" x="551.5" y="-314.6" font-family="Helvetica,sans-Serif" font-weight="bold" font-size="18.00">OUTPUTS</text>
</g>
<g id="clust7" class="cluster">
<title>cluster_legend</title>
<path fill="#ffffff" stroke="#888888" d="M180,-8C180,-8 718,-8 718,-8 724,-8 730,-14 730,-20 730,-20 730,-130 730,-130 730,-136 724,-142 718,-142 718,-142 180,-142 180,-142 174,-142 168,-136 168,-130 168,-130 168,-20 168,-20 168,-14 174,-8 180,-8"/>
<text text-anchor="middle" x="449" y="-123.6" font-family="Helvetica,sans-Serif" font-weight="bold" font-size="18.00">LEGEND</text>
</g>
<!-- in_rnaseq -->
<g id="node1" class="node">
<title>in_rnaseq</title>
<polygon fill="#fdd9b4" stroke="#333333" stroke-width="1.5" stroke-dasharray="5,2" points="1244.12,-1377 1095.99,-1377 1057.88,-1289 1206.01,-1289 1244.12,-1377"/>
<text text-anchor="middle" x="1151" y="-1338.2" font-family="Helvetica,sans-Serif" font-size="16.00">Short&#45;read</text>
<text text-anchor="middle" x="1151" y="-1320.2" font-family="Helvetica,sans-Serif" font-size="16.00">RNA&#45;Seq</text>
</g>
<!-- pp_align -->
<g id="node6" class="node">
<title>pp_align</title>
<path fill="#d9ead3" stroke="#333333" stroke-width="1.5" stroke-dasharray="5,2" d="M910.5,-1202C910.5,-1202 747.5,-1202 747.5,-1202 741.5,-1202 735.5,-1196 735.5,-1190 735.5,-1190 735.5,-1138 735.5,-1138 735.5,-1132 741.5,-1126 747.5,-1126 747.5,-1126 910.5,-1126 910.5,-1126 916.5,-1126 922.5,-1132 922.5,-1138 922.5,-1138 922.5,-1190 922.5,-1190 922.5,-1196 916.5,-1202 910.5,-1202"/>
<text text-anchor="middle" x="829" y="-1178.2" font-family="Helvetica,sans-Serif" font-size="16.00">Read alignment</text>
<text text-anchor="middle" x="829" y="-1160.2" font-family="Helvetica,sans-Serif" font-size="16.00">HISAT2 (short reads)</text>
<text text-anchor="middle" x="829" y="-1142.2" font-family="Helvetica,sans-Serif" font-size="16.00">minimap2 (IsoSeq)</text>
</g>
<!-- in_rnaseq&#45;&gt;pp_align -->
<g id="edge2" class="edge">
<title>in_rnaseq&#45;&gt;pp_align</title>
<path fill="none" stroke="#555555" stroke-width="1.4" stroke-dasharray="5,2" d="M1074.9,-1288.97C1066.2,-1284.2 1057.43,-1279.46 1049,-1275 1004.96,-1251.7 955.36,-1226.79 914.43,-1206.58"/>
<polygon fill="#555555" stroke="#555555" stroke-width="1.4" points="915.81,-1203.36 905.29,-1202.07 912.71,-1209.63 915.81,-1203.36"/>
</g>
<!-- in_genome -->
<g id="node2" class="node">
<title>in_genome</title>
<path fill="#fdd9b4" stroke="#333333" stroke-width="1.5" d="M1027.66,-1377C1027.66,-1377 924.94,-1377 924.94,-1377 918.94,-1377 910.85,-1371.37 908.77,-1365.75 908.77,-1365.75 884.51,-1300.25 884.51,-1300.25 882.42,-1294.63 886.34,-1289 892.34,-1289 892.34,-1289 995.06,-1289 995.06,-1289 1001.06,-1289 1009.15,-1294.63 1011.23,-1300.25 1011.23,-1300.25 1035.49,-1365.75 1035.49,-1365.75 1037.58,-1371.37 1033.66,-1377 1027.66,-1377"/>
<text text-anchor="middle" x="960" y="-1338.2" font-family="Helvetica,sans-Serif" font-size="16.00">Genome</text>
<text text-anchor="middle" x="960" y="-1320.2" font-family="Helvetica,sans-Serif" font-size="16.00">FASTA</text>
</g>
<!-- pp_mask -->
<g id="node5" class="node">
<title>pp_mask</title>
<path fill="#d9ead3" stroke="#333333" stroke-width="1.5" stroke-dasharray="5,2" d="M706,-1202C706,-1202 534,-1202 534,-1202 528,-1202 522,-1196 522,-1190 522,-1190 522,-1138 522,-1138 522,-1132 528,-1126 534,-1126 534,-1126 706,-1126 706,-1126 712,-1126 718,-1132 718,-1138 718,-1138 718,-1190 718,-1190 718,-1196 712,-1202 706,-1202"/>
<text text-anchor="middle" x="620" y="-1178.2" font-family="Helvetica,sans-Serif" font-size="16.00">Repeat masking</text>
<text text-anchor="middle" x="620" y="-1160.2" font-family="Helvetica,sans-Serif" font-size="16.00">(RepeatModeler2 +</text>
<text text-anchor="middle" x="620" y="-1142.2" font-family="Helvetica,sans-Serif" font-size="16.00">RepeatMasker + TRF)</text>
</g>
<!-- in_genome&#45;&gt;pp_mask -->
<g id="edge1" class="edge">
<title>in_genome&#45;&gt;pp_mask</title>
<path fill="none" stroke="#555555" stroke-width="1.4" stroke-dasharray="5,2" d="M888.19,-1310.57C840.95,-1295.11 778.55,-1272.07 727,-1244 708.35,-1233.85 689.3,-1220.8 672.53,-1208.24"/>
<polygon fill="#555555" stroke="#555555" stroke-width="1.4" points="674.57,-1205.39 664.49,-1202.13 670.34,-1210.97 674.57,-1205.39"/>
<text text-anchor="middle" x="806" y="-1255.8" font-family="Helvetica,sans-Serif" font-size="14.00">if unmasked</text>
</g>
<!-- hints -->
<g id="node7" class="node">
<title>hints</title>
<path fill="#c9daf8" stroke="#333333" stroke-width="1.5" d="M1077,-1083C1077,-1083 843,-1083 843,-1083 837,-1083 831,-1077 831,-1071 831,-1071 831,-1000 831,-1000 831,-994 837,-988 843,-988 843,-988 1077,-988 1077,-988 1083,-988 1089,-994 1089,-1000 1089,-1000 1089,-1071 1089,-1071 1089,-1077 1083,-1083 1077,-1083"/>
<text text-anchor="middle" x="960" y="-1059.2" font-family="Helvetica,sans-Serif" font-size="16.00">Evidence hints</text>
<text text-anchor="middle" x="960" y="-1022.2" font-family="Helvetica,sans-Serif" font-size="16.00">RNA&#45;Seq &#160;· &#160;Proteins (ProtHint)</text>
<text text-anchor="middle" x="960" y="-1004.2" font-family="Helvetica,sans-Serif" font-size="16.00">IsoSeq &#160;· &#160;BUSCO</text>
</g>
<!-- in_genome&#45;&gt;hints -->
<g id="edge4" class="edge">
<title>in_genome&#45;&gt;hints</title>
<path fill="none" stroke="#555555" stroke-width="1.4" d="M960,-1288.72C960,-1237.1 960,-1150.67 960,-1093.62"/>
<polygon fill="#555555" stroke="#555555" stroke-width="1.4" points="963.5,-1093.32 960,-1083.32 956.5,-1093.32 963.5,-1093.32"/>
</g>
<!-- in_isoseq -->
<g id="node3" class="node">
<title>in_isoseq</title>
<polygon fill="#fdd9b4" stroke="#333333" stroke-width="1.5" stroke-dasharray="5,2" points="1449.12,-1377 1300.99,-1377 1262.88,-1289 1411.01,-1289 1449.12,-1377"/>
<text text-anchor="middle" x="1356" y="-1338.2" font-family="Helvetica,sans-Serif" font-size="16.00">IsoSeq</text>
<text text-anchor="middle" x="1356" y="-1320.2" font-family="Helvetica,sans-Serif" font-size="16.00">long reads</text>
</g>
<!-- in_isoseq&#45;&gt;pp_align -->
<g id="edge3" class="edge">
<title>in_isoseq&#45;&gt;pp_align</title>
<path fill="none" stroke="#555555" stroke-width="1.4" stroke-dasharray="5,2" d="M1283.39,-1288.89C1273.37,-1283.81 1263.06,-1279.01 1253,-1275 1147.07,-1232.73 1019.74,-1202.24 932.44,-1184.23"/>
<polygon fill="#555555" stroke="#555555" stroke-width="1.4" points="933.03,-1180.77 922.53,-1182.2 931.62,-1187.63 933.03,-1180.77"/>
</g>
<!-- in_proteins -->
<g id="node4" class="node">
<title>in_proteins</title>
<polygon fill="#fdd9b4" stroke="#333333" stroke-width="1.5" stroke-dasharray="5,2" points="1604.35,-1377 1495.62,-1377 1467.65,-1289 1576.38,-1289 1604.35,-1377"/>
<text text-anchor="middle" x="1536" y="-1338.2" font-family="Helvetica,sans-Serif" font-size="16.00">Protein</text>
<text text-anchor="middle" x="1536" y="-1320.2" font-family="Helvetica,sans-Serif" font-size="16.00">FASTA</text>
</g>
<!-- in_proteins&#45;&gt;hints -->
<g id="edge7" class="edge">
<title>in_proteins&#45;&gt;hints</title>
<path fill="none" stroke="#555555" stroke-width="1.4" stroke-dasharray="5,2" d="M1479.31,-1288.74C1472.26,-1283.91 1465.05,-1279.22 1458,-1275 1334.41,-1201.11 1184.39,-1131.81 1081.51,-1087.16"/>
<polygon fill="#555555" stroke="#555555" stroke-width="1.4" points="1082.9,-1083.95 1072.33,-1083.19 1080.12,-1090.37 1082.9,-1083.95"/>
</g>
<!-- pp_mask&#45;&gt;hints -->
<g id="edge5" class="edge">
<title>pp_mask&#45;&gt;hints</title>
<path fill="none" stroke="#555555" stroke-width="1.4" stroke-dasharray="5,2" d="M694.57,-1125.93C705.35,-1121.02 716.39,-1116.23 727,-1112 757.07,-1100.02 789.86,-1088.49 821.1,-1078.2"/>
<polygon fill="#555555" stroke="#555555" stroke-width="1.4" points="822.32,-1081.48 830.73,-1075.05 820.14,-1074.83 822.32,-1081.48"/>
</g>
<!-- pp_align&#45;&gt;hints -->
<g id="edge6" class="edge">
<title>pp_align&#45;&gt;hints</title>
<path fill="none" stroke="#555555" stroke-width="1.4" stroke-dasharray="5,2" d="M867.6,-1125.73C879.08,-1114.64 891.9,-1102.26 904.24,-1090.34"/>
<polygon fill="#555555" stroke="#555555" stroke-width="1.4" points="906.68,-1092.85 911.44,-1083.39 901.82,-1087.82 906.68,-1092.85"/>
</g>
<!-- genemark -->
<g id="node8" class="node">
<title>genemark</title>
<path fill="#ead1dc" stroke="#333333" stroke-width="1.6" d="M1069,-947C1069,-947 851,-947 851,-947 845,-947 839,-941 839,-935 839,-935 839,-846 839,-846 839,-840 845,-834 851,-834 851,-834 1069,-834 1069,-834 1075,-834 1081,-840 1081,-846 1081,-846 1081,-935 1081,-935 1081,-941 1075,-947 1069,-947"/>
<text text-anchor="middle" x="960" y="-923.2" font-family="Helvetica,sans-Serif" font-size="16.00">GeneMark</text>
<text text-anchor="middle" x="960" y="-905.2" font-family="Helvetica,sans-Serif" font-size="16.00">(ES / ET / EP+ / ETP)</text>
<text text-anchor="middle" x="960" y="-868.2" font-family="Helvetica,sans-Serif" font-size="16.00">mode selected automatically</text>
<text text-anchor="middle" x="960" y="-850.2" font-family="Helvetica,sans-Serif" font-size="16.00">from provided evidence</text>
</g>
<!-- hints&#45;&gt;genemark -->
<g id="edge8" class="edge">
<title>hints&#45;&gt;genemark</title>
<path fill="none" stroke="#555555" stroke-width="1.4" d="M960,-987.68C960,-977.96 960,-967.56 960,-957.31"/>
<polygon fill="#555555" stroke="#555555" stroke-width="1.4" points="963.5,-957.14 960,-947.14 956.5,-957.14 963.5,-957.14"/>
</g>
<!-- augustus -->
<g id="node9" class="node">
<title>augustus</title>
<path fill="#fff2cc" stroke="#333333" stroke-width="1.6" d="M1046.5,-764C1046.5,-764 873.5,-764 873.5,-764 867.5,-764 861.5,-758 861.5,-752 861.5,-752 861.5,-663 861.5,-663 861.5,-657 867.5,-651 873.5,-651 873.5,-651 1046.5,-651 1046.5,-651 1052.5,-651 1058.5,-657 1058.5,-663 1058.5,-663 1058.5,-752 1058.5,-752 1058.5,-758 1052.5,-764 1046.5,-764"/>
<text text-anchor="middle" x="960" y="-740.2" font-family="Helvetica,sans-Serif" font-size="16.00">AUGUSTUS</text>
<text text-anchor="middle" x="960" y="-722.2" font-family="Helvetica,sans-Serif" font-size="16.00">training + prediction</text>
<text text-anchor="middle" x="960" y="-685.2" font-family="Helvetica,sans-Serif" font-size="16.00">(etraining · optimize ·</text>
<text text-anchor="middle" x="960" y="-667.2" font-family="Helvetica,sans-Serif" font-size="16.00">hint&#45;guided prediction)</text>
</g>
<!-- hints&#45;&gt;augustus -->
<g id="edge9" class="edge">
<title>hints&#45;&gt;augustus</title>
<path fill="none" stroke="#555555" stroke-width="1.4" stroke-dasharray="5,2" d="M1054.27,-987.9C1068.64,-976.55 1081.5,-962.97 1090,-947 1113.6,-902.67 1109.63,-880.23 1090,-834 1079.99,-810.42 1063.14,-789.11 1044.83,-771.03"/>
<polygon fill="#555555" stroke="#555555" stroke-width="1.4" points="1047.12,-768.38 1037.47,-764 1042.28,-773.44 1047.12,-768.38"/>
<text text-anchor="middle" x="1120.5" y="-886.8" font-family="Helvetica,sans-Serif" font-size="14.00">hints</text>
</g>
<!-- genemark&#45;&gt;augustus -->
<g id="edge10" class="edge">
<title>genemark&#45;&gt;augustus</title>
<path fill="none" stroke="#555555" stroke-width="1.4" d="M960,-833.72C960,-814.88 960,-793.67 960,-774.14"/>
<polygon fill="#555555" stroke="#555555" stroke-width="1.4" points="963.5,-774.1 960,-764.1 956.5,-774.1 963.5,-774.1"/>
<text text-anchor="middle" x="982.5" y="-802.8" font-family="Helvetica,sans-Serif" font-size="14.00">training</text>
<text text-anchor="middle" x="982.5" y="-787.8" font-family="Helvetica,sans-Serif" font-size="14.00">genes</text>
</g>
<!-- tsebra -->
<g id="node10" class="node">
<title>tsebra</title>
<path fill="#d0e0e3" stroke="#333333" stroke-width="1.6" d="M1062.5,-610C1062.5,-610 857.5,-610 857.5,-610 851.5,-610 845.5,-604 845.5,-598 845.5,-598 845.5,-546 845.5,-546 845.5,-540 851.5,-534 857.5,-534 857.5,-534 1062.5,-534 1062.5,-534 1068.5,-534 1074.5,-540 1074.5,-546 1074.5,-546 1074.5,-598 1074.5,-598 1074.5,-604 1068.5,-610 1062.5,-610"/>
<text text-anchor="middle" x="960" y="-586.2" font-family="Helvetica,sans-Serif" font-size="16.00">TSEBRA merge</text>
<text text-anchor="middle" x="960" y="-568.2" font-family="Helvetica,sans-Serif" font-size="16.00">(AUGUSTUS + GeneMark)</text>
<text text-anchor="middle" x="960" y="-550.2" font-family="Helvetica,sans-Serif" font-size="16.00">+ filter · rename · GFF3</text>
</g>
<!-- genemark&#45;&gt;tsebra -->
<g id="edge12" class="edge">
<title>genemark&#45;&gt;tsebra</title>
<path fill="none" stroke="#555555" stroke-width="1.4" stroke-dasharray="5,2" d="M897.99,-833.93C879.93,-813.89 862.5,-789.79 853,-764 835.64,-716.87 830.24,-695.77 853,-651 859.69,-637.85 869.75,-626.39 881.07,-616.6"/>
<polygon fill="#555555" stroke="#555555" stroke-width="1.4" points="883.53,-619.11 889.09,-610.09 879.12,-613.67 883.53,-619.11"/>
</g>
<!-- augustus&#45;&gt;tsebra -->
<g id="edge11" class="edge">
<title>augustus&#45;&gt;tsebra</title>
<path fill="none" stroke="#555555" stroke-width="1.4" d="M960,-650.66C960,-640.48 960,-629.95 960,-620.05"/>
<polygon fill="#555555" stroke="#555555" stroke-width="1.4" points="963.5,-620.01 960,-610.01 956.5,-620.01 963.5,-620.01"/>
</g>
<!-- utr -->
<g id="node11" class="node">
<title>utr</title>
<path fill="#d0e0e3" stroke="#333333" stroke-width="1.5" stroke-dasharray="5,2" d="M152.5,-465.5C152.5,-465.5 27.5,-465.5 27.5,-465.5 21.5,-465.5 15.5,-459.5 15.5,-453.5 15.5,-453.5 15.5,-401.5 15.5,-401.5 15.5,-395.5 21.5,-389.5 27.5,-389.5 27.5,-389.5 152.5,-389.5 152.5,-389.5 158.5,-389.5 164.5,-395.5 164.5,-401.5 164.5,-401.5 164.5,-453.5 164.5,-453.5 164.5,-459.5 158.5,-465.5 152.5,-465.5"/>
<text text-anchor="middle" x="90" y="-441.7" font-family="Helvetica,sans-Serif" font-size="16.00">UTR annotation</text>
<text text-anchor="middle" x="90" y="-423.7" font-family="Helvetica,sans-Serif" font-size="16.00">StringTie +</text>
<text text-anchor="middle" x="90" y="-405.7" font-family="Helvetica,sans-Serif" font-size="16.00">stringtie2utr</text>
</g>
<!-- tsebra&#45;&gt;utr -->
<g id="edge13" class="edge">
<title>tsebra&#45;&gt;utr</title>
<path fill="none" stroke="#555555" stroke-width="1.4" stroke-dasharray="5,2" d="M845.46,-567.34C657.66,-560.06 293.22,-540.19 174,-493 161.07,-487.88 148.45,-480.16 137.08,-471.81"/>
<polygon fill="#555555" stroke="#555555" stroke-width="1.4" points="139.1,-468.96 129.03,-465.66 134.85,-474.51 139.1,-468.96"/>
</g>
<!-- ncrna -->
<g id="node12" class="node">
<title>ncrna</title>
<path fill="#e6d5f0" stroke="#333333" stroke-width="1.4" stroke-dasharray="5,2" d="M628.5,-475C628.5,-475 409.5,-475 409.5,-475 403.5,-475 397.5,-469 397.5,-463 397.5,-463 397.5,-392 397.5,-392 397.5,-386 403.5,-380 409.5,-380 409.5,-380 628.5,-380 628.5,-380 634.5,-380 640.5,-386 640.5,-392 640.5,-392 640.5,-463 640.5,-463 640.5,-469 634.5,-475 628.5,-475"/>
<text text-anchor="middle" x="519" y="-451.2" font-family="Helvetica,sans-Serif" font-size="16.00">ncRNA annotation &#160;(optional)</text>
<text text-anchor="middle" x="519" y="-414.2" font-family="Helvetica,sans-Serif" font-size="16.00">barrnap · tRNAscan&#45;SE</text>
<text text-anchor="middle" x="519" y="-396.2" font-family="Helvetica,sans-Serif" font-size="16.00">Infernal + Rfam · FEELnc</text>
</g>
<!-- tsebra&#45;&gt;ncrna -->
<g id="edge15" class="edge">
<title>tsebra&#45;&gt;ncrna</title>
<path fill="none" stroke="#555555" stroke-width="1.4" stroke-dasharray="5,2" d="M845.22,-548.4C785.74,-535.15 712.46,-516.39 649,-493 638.01,-488.95 626.73,-484.24 615.62,-479.25"/>
<polygon fill="#555555" stroke="#555555" stroke-width="1.4" points="616.88,-475.98 606.34,-475 613.97,-482.35 616.88,-475.98"/>
</g>
<!-- fantasia -->
<g id="node13" class="node">
<title>fantasia</title>
<path fill="#a2c4c9" stroke="#333333" stroke-width="1.4" stroke-dasharray="5,2" d="M919.5,-493C919.5,-493 670.5,-493 670.5,-493 664.5,-493 658.5,-487 658.5,-481 658.5,-481 658.5,-374 658.5,-374 658.5,-368 664.5,-362 670.5,-362 670.5,-362 919.5,-362 919.5,-362 925.5,-362 931.5,-368 931.5,-374 931.5,-374 931.5,-481 931.5,-481 931.5,-487 925.5,-493 919.5,-493"/>
<text text-anchor="middle" x="795" y="-469.2" font-family="Helvetica,sans-Serif" font-size="16.00">Functional annotation &#160;(optional)</text>
<text text-anchor="middle" x="795" y="-432.2" font-family="Helvetica,sans-Serif" font-size="16.00">FANTASIA&#45;Lite</text>
<text text-anchor="middle" x="795" y="-414.2" font-family="Helvetica,sans-Serif" font-size="16.00">ProtT5 embeddings → GO terms</text>
<text text-anchor="middle" x="795" y="-396.2" font-family="Helvetica,sans-Serif" font-size="16.00">GFF3 Ontology_term decoration</text>
<text text-anchor="middle" x="795" y="-378.2" font-family="Helvetica,sans-Serif" font-size="16.00">(GPU only)</text>
</g>
<!-- tsebra&#45;&gt;fantasia -->
<g id="edge16" class="edge">
<title>tsebra&#45;&gt;fantasia</title>
<path fill="none" stroke="#555555" stroke-width="1.4" stroke-dasharray="5,2" d="M917.08,-533.93C904.91,-523.43 891.24,-511.62 877.57,-499.81"/>
<polygon fill="#555555" stroke="#555555" stroke-width="1.4" points="879.84,-497.15 869.98,-493.26 875.26,-502.44 879.84,-497.15"/>
</g>
<!-- qc -->
<g id="node14" class="node">
<title>qc</title>
<path fill="#cfbae1" stroke="#333333" stroke-width="1.4" d="M367,-493C367,-493 195,-493 195,-493 189,-493 183,-487 183,-481 183,-481 183,-374 183,-374 183,-368 189,-362 195,-362 195,-362 367,-362 367,-362 373,-362 379,-368 379,-374 379,-374 379,-481 379,-481 379,-487 373,-493 367,-493"/>
<text text-anchor="middle" x="281" y="-469.2" font-family="Helvetica,sans-Serif" font-size="16.00">Quality control</text>
<text text-anchor="middle" x="281" y="-432.2" font-family="Helvetica,sans-Serif" font-size="16.00">BUSCO + compleasm</text>
<text text-anchor="middle" x="281" y="-414.2" font-family="Helvetica,sans-Serif" font-size="16.00">OMArk (optional)</text>
<text text-anchor="middle" x="281" y="-396.2" font-family="Helvetica,sans-Serif" font-size="16.00">gffcompare (optional)</text>
<text text-anchor="middle" x="281" y="-378.2" font-family="Helvetica,sans-Serif" font-size="16.00">gene&#45;support analysis</text>
</g>
<!-- tsebra&#45;&gt;qc -->
<g id="edge14" class="edge">
<title>tsebra&#45;&gt;qc</title>
<path fill="none" stroke="#555555" stroke-width="1.4" d="M845.29,-568.93C729.78,-563.81 547.58,-547.36 388.56,-492.91"/>
<polygon fill="#555555" stroke="#555555" stroke-width="1.4" points="389.69,-489.59 379.09,-489.61 387.38,-496.2 389.69,-489.59"/>
</g>
<!-- out_genes -->
<g id="node16" class="node">
<title>out_genes</title>
<polygon fill="#f4cccc" stroke="#333333" stroke-width="1.5" points="1074.5,-282 839.5,-282 839.5,-224 1080.5,-224 1080.5,-276 1074.5,-282"/>
<polyline fill="none" stroke="#333333" stroke-width="1.5" points="1074.5,-282 1074.5,-276 "/>
<polyline fill="none" stroke="#333333" stroke-width="1.5" points="1080.5,-276 1074.5,-276 "/>
<text text-anchor="middle" x="960" y="-258.2" font-family="Helvetica,sans-Serif" font-size="16.00">braker.gtf · braker.gff3</text>
<text text-anchor="middle" x="960" y="-240.2" font-family="Helvetica,sans-Serif" font-size="16.00">braker.aa · braker.codingseq</text>
</g>
<!-- tsebra&#45;&gt;out_genes -->
<g id="edge17" class="edge">
<title>tsebra&#45;&gt;out_genes</title>
<path fill="none" stroke="#555555" stroke-width="1.4" d="M960,-533.7C960,-473.06 960,-353.68 960,-292.36"/>
<polygon fill="#555555" stroke="#555555" stroke-width="1.4" points="963.5,-292.32 960,-282.32 956.5,-292.32 963.5,-292.32"/>
</g>
<!-- out_utr -->
<g id="node15" class="node">
<title>out_utr</title>
<polygon fill="#f4cccc" stroke="#333333" stroke-width="1.5" stroke-dasharray="5,2" points="148,-273 22,-273 22,-233 154,-233 154,-267 148,-273"/>
<polyline fill="none" stroke="#333333" stroke-width="1.5" stroke-dasharray="5,2" points="148,-273 148,-267 "/>
<polyline fill="none" stroke="#333333" stroke-width="1.5" stroke-dasharray="5,2" points="154,-267 148,-267 "/>
<text text-anchor="middle" x="88" y="-249.2" font-family="Helvetica,sans-Serif" font-size="16.00">braker_utr.gtf</text>
</g>
<!-- utr&#45;&gt;out_utr -->
<g id="edge18" class="edge">
<title>utr&#45;&gt;out_utr</title>
<path fill="none" stroke="#555555" stroke-width="1.4" stroke-dasharray="5,2" d="M89.57,-389.49C89.2,-357.75 88.68,-312.63 88.34,-283.34"/>
<polygon fill="#555555" stroke="#555555" stroke-width="1.4" points="91.84,-283.27 88.22,-273.31 84.84,-283.35 91.84,-283.27"/>
</g>
<!-- out_ncrna -->
<g id="node17" class="node">
<title>out_ncrna</title>
<polygon fill="#f4cccc" stroke="#333333" stroke-width="1.5" stroke-dasharray="5,2" points="601.5,-273 396.5,-273 396.5,-233 607.5,-233 607.5,-267 601.5,-273"/>
<polyline fill="none" stroke="#333333" stroke-width="1.5" stroke-dasharray="5,2" points="601.5,-273 601.5,-267 "/>
<polyline fill="none" stroke="#333333" stroke-width="1.5" stroke-dasharray="5,2" points="607.5,-267 601.5,-267 "/>
<text text-anchor="middle" x="502" y="-249.2" font-family="Helvetica,sans-Serif" font-size="16.00">braker_with_ncRNA.gff3</text>
</g>
<!-- ncrna&#45;&gt;out_ncrna -->
<g id="edge19" class="edge">
<title>ncrna&#45;&gt;out_ncrna</title>
<path fill="none" stroke="#555555" stroke-width="1.4" stroke-dasharray="5,2" d="M514.4,-379.82C511.37,-349.13 507.51,-309.9 504.9,-283.47"/>
<polygon fill="#555555" stroke="#555555" stroke-width="1.4" points="508.37,-282.94 503.9,-273.33 501.4,-283.62 508.37,-282.94"/>
</g>
<!-- out_fantasia -->
<g id="node18" class="node">
<title>out_fantasia</title>
<polygon fill="#f4cccc" stroke="#333333" stroke-width="1.5" stroke-dasharray="5,2" points="816,-282 626,-282 626,-224 822,-224 822,-276 816,-282"/>
<polyline fill="none" stroke="#333333" stroke-width="1.5" stroke-dasharray="5,2" points="816,-282 816,-276 "/>
<polyline fill="none" stroke="#333333" stroke-width="1.5" stroke-dasharray="5,2" points="822,-276 816,-276 "/>
<text text-anchor="middle" x="724" y="-258.2" font-family="Helvetica,sans-Serif" font-size="16.00">braker.go.gff3</text>
<text text-anchor="middle" x="724" y="-240.2" font-family="Helvetica,sans-Serif" font-size="16.00">fantasia_go_terms.tsv</text>
</g>
<!-- fantasia&#45;&gt;out_fantasia -->
<g id="edge20" class="edge">
<title>fantasia&#45;&gt;out_fantasia</title>
<path fill="none" stroke="#555555" stroke-width="1.4" stroke-dasharray="5,2" d="M768.36,-361.78C758.58,-338.01 747.84,-311.91 739.37,-291.35"/>
<polygon fill="#555555" stroke="#555555" stroke-width="1.4" points="742.58,-289.94 735.54,-282.03 736.11,-292.61 742.58,-289.94"/>
</g>
<!-- out_report -->
<g id="node19" class="node">
<title>out_report</title>
<polygon fill="#f4cccc" stroke="#333333" stroke-width="1.5" points="372,-291 172,-291 172,-215 378,-215 378,-285 372,-291"/>
<polyline fill="none" stroke="#333333" stroke-width="1.5" points="372,-291 372,-285 "/>
<polyline fill="none" stroke="#333333" stroke-width="1.5" points="378,-285 372,-285 "/>
<text text-anchor="middle" x="275" y="-267.2" font-family="Helvetica,sans-Serif" font-size="16.00">HTML report</text>
<text text-anchor="middle" x="275" y="-249.2" font-family="Helvetica,sans-Serif" font-size="16.00">+ citations.bib</text>
<text text-anchor="middle" x="275" y="-231.2" font-family="Helvetica,sans-Serif" font-size="16.00">+ software_versions.tsv</text>
</g>
<!-- qc&#45;&gt;out_report -->
<g id="edge21" class="edge">
<title>qc&#45;&gt;out_report</title>
<path fill="none" stroke="#555555" stroke-width="1.4" d="M278.75,-361.78C278.05,-341.61 277.29,-319.77 276.64,-301.05"/>
<polygon fill="#555555" stroke="#555555" stroke-width="1.4" points="280.13,-300.88 276.29,-291.01 273.14,-301.12 280.13,-300.88"/>
</g>
<!-- leg_opt -->
<g id="node21" class="node">
<title>leg_opt</title>
<path fill="#ffffff" stroke="#333333" stroke-width="1.5" stroke-dasharray="5,2" d="M303.5,-89C303.5,-89 194.5,-89 194.5,-89 188.5,-89 182.5,-83 182.5,-77 182.5,-77 182.5,-45 182.5,-45 182.5,-39 188.5,-33 194.5,-33 194.5,-33 303.5,-33 303.5,-33 309.5,-33 315.5,-39 315.5,-45 315.5,-45 315.5,-77 315.5,-77 315.5,-83 309.5,-89 303.5,-89"/>
<text text-anchor="middle" x="249" y="-66" font-family="Helvetica,sans-Serif" font-size="15.00">optional step</text>
<text text-anchor="middle" x="249" y="-49" font-family="Helvetica,sans-Serif" font-size="15.00">(user enables)</text>
</g>
<!-- out_utr&#45;&gt;leg_opt -->
<!-- leg_req -->
<g id="node20" class="node">
<title>leg_req</title>
<path fill="#ffffff" stroke="#333333" stroke-width="1.5" d="M704,-80.5C704,-80.5 604,-80.5 604,-80.5 598,-80.5 592,-74.5 592,-68.5 592,-68.5 592,-53.5 592,-53.5 592,-47.5 598,-41.5 604,-41.5 604,-41.5 704,-41.5 704,-41.5 710,-41.5 716,-47.5 716,-53.5 716,-53.5 716,-68.5 716,-68.5 716,-74.5 710,-80.5 704,-80.5"/>
<text text-anchor="middle" x="654" y="-57.5" font-family="Helvetica,sans-Serif" font-size="15.00">required step</text>
</g>
<!-- out_genes&#45;&gt;leg_req -->
<!-- leg_in -->
<g id="node22" class="node">
<title>leg_in</title>
<path fill="#fdd9b4" stroke="#333333" stroke-width="1.5" d="M561.57,-100C561.57,-100 471.72,-100 471.72,-100 465.72,-100 457.61,-94.38 455.5,-88.77 455.5,-88.77 434.65,-33.23 434.65,-33.23 432.54,-27.62 436.43,-22 442.43,-22 442.43,-22 532.28,-22 532.28,-22 538.28,-22 546.39,-27.62 548.5,-33.23 548.5,-33.23 569.35,-88.77 569.35,-88.77 571.46,-94.38 567.57,-100 561.57,-100"/>
<text text-anchor="middle" x="502" y="-57.5" font-family="Helvetica,sans-Serif" font-size="15.00">input</text>
</g>
<!-- out_ncrna&#45;&gt;leg_in -->
<!-- out_fantasia&#45;&gt;leg_in -->
<!-- leg_out -->
<g id="node23" class="node">
<title>leg_out</title>
<polygon fill="#f4cccc" stroke="#333333" stroke-width="1.5" points="406.5,-80.5 333.5,-80.5 333.5,-41.5 412.5,-41.5 412.5,-74.5 406.5,-80.5"/>
<polyline fill="none" stroke="#333333" stroke-width="1.5" points="406.5,-80.5 406.5,-74.5 "/>
<polyline fill="none" stroke="#333333" stroke-width="1.5" points="412.5,-74.5 406.5,-74.5 "/>
<text text-anchor="middle" x="373" y="-57.5" font-family="Helvetica,sans-Serif" font-size="15.00">output</text>
</g>
<!-- out_report&#45;&gt;leg_out -->
</g>
</svg>
